HIERARCHY
ROOT Hips
{
	OFFSET 0.00000 0.00000 0.00000
	CHANNELS 6 Xposition Yposition Zposition Zrotation Yrotation Xrotation 
	JOINT LHipJoint
	{
		OFFSET 0 0 0
		CHANNELS 3 Zrotation Yrotation Xrotation
		JOINT LeftHip
		{
			OFFSET 1.53927 -1.56553 0.51726
			CHANNELS 3 Zrotation Yrotation Xrotation
			JOINT LeftKnee
			{
				OFFSET 2.38199 -6.54447 0.00000
				CHANNELS 3 Zrotation Yrotation Xrotation
				JOINT LeftAnkle
				{
					OFFSET 2.35499 -6.47028 0.00000
					CHANNELS 3 Zrotation Yrotation Xrotation
					JOINT LeftToe
					{
						OFFSET 0.13641 -0.37478 1.84251
						CHANNELS 3 Zrotation Yrotation Xrotation
						End Site
						{
							OFFSET 0.00000 -0.00000 0.95212
						}
					}
				}
			}
		}
	}
	JOINT RHipJoint
	{
		OFFSET 0 0 0
		CHANNELS 3 Zrotation Yrotation Xrotation
		JOINT RightHip
		{
			OFFSET -1.43919 -1.56553 0.51726
			CHANNELS 3 Zrotation Yrotation Xrotation
			JOINT RightKnee
			{
				OFFSET -2.34860 -6.45274 0.00000
				CHANNELS 3 Zrotation Yrotation Xrotation
				JOINT RightAnkle
				{
					OFFSET -2.25563 -6.19730 0.00000
					CHANNELS 3 Zrotation Yrotation Xrotation
					JOINT RightToe
					{
						OFFSET -0.19755 -0.54277 1.84912
						CHANNELS 3 Zrotation Yrotation Xrotation
						End Site
						{
							OFFSET -0.00000 -0.00000 0.97032
						}
					}
				}
			}
		}
	}
	JOINT lowerback
	{
		OFFSET 0 0 0
		CHANNELS 3 Zrotation Yrotation Xrotation
		JOINT Chest
		{
			OFFSET -0.06402 1.88434 -0.00445
			CHANNELS 3 Zrotation Yrotation Xrotation
			JOINT Chest2
			{
				OFFSET 0.00756 1.88511 0.04237
				CHANNELS 3 Zrotation Yrotation Xrotation
				JOINT lowerneck
				{
					OFFSET 0 0 0
					CHANNELS 3 Zrotation Yrotation Xrotation
					JOINT Neck
					{
						OFFSET -0.06230 1.34710 0.03308
						CHANNELS 3 Zrotation Yrotation Xrotation
						JOINT Head
						{
							OFFSET -0.02442 1.34501 -0.13654
							CHANNELS 3 Zrotation Yrotation Xrotation
							End Site
							{
								OFFSET -0.00508 1.35584 -0.05075
							}
						}
					}
				}
				JOINT LeftCollar
				{
					OFFSET 0 0 0
					CHANNELS 3 Zrotation Yrotation Xrotation
					JOINT LeftShoulder
					{
						OFFSET 2.76911 0.54460 0.39412
CHANNELS 3 Zrotation Xrotation Yrotation
						JOINT LeftElbow
						{
OFFSET 0 -4.409190 -0.000000
CHANNELS 3 Zrotation Xrotation Yrotation
							JOINT LeftWrist
							{
OFFSET 0 -3.038570 -0.000000
CHANNELS 3 Zrotation Xrotation Yrotation
								JOINT lhand
								{
									OFFSET 0 0 0
CHANNELS 3 Zrotation Xrotation Yrotation
									JOINT LFingers
									{
OFFSET 0 -0.523210 -0.000000
CHANNELS 3 Zrotation Xrotation Yrotation
										End Site
										{
OFFSET 0 -0.421820 -0.000000
										}
									}
								}
								JOINT LThumb
								{
OFFSET 0 0.000000 0.000000
CHANNELS 3 Zrotation Xrotation Yrotation
									End Site
									{
OFFSET 0 -0.428260 0.428260
									}
								}
							}
						}
					}
				}
				JOINT RightCollar
				{
					OFFSET 0 0 0
					CHANNELS 3 Zrotation Yrotation Xrotation
					JOINT RightShoulder
					{
						OFFSET -2.99050 0.75949 0.48975
CHANNELS 3 Zrotation Xrotation Yrotation
						JOINT RightElbow
						{
OFFSET 0 -4.619690 -0.000000
CHANNELS 3 Zrotation Xrotation Yrotation
							JOINT RightWrist
							{
OFFSET 0 -3.093820 -0.000000
CHANNELS 3 Zrotation Xrotation Yrotation
								JOINT rhand
								{
									OFFSET 0 0 0
CHANNELS 3 Zrotation Xrotation Yrotation
									JOINT RFingers
									{
OFFSET 0 -0.500900 -0.000000
CHANNELS 3 Zrotation Xrotation Yrotation
										End Site
										{
OFFSET 0 -0.403840 -0.000000
										}
									}
								}
								JOINT RThumb
								{
OFFSET 0 0.000000 0.000000
CHANNELS 3 Zrotation Xrotation Yrotation
									End Site
									{
OFFSET 0 -0.410000 0.410000
									}
								}
							}
						}
					}
				}
			}
		}
	}
}
MOTION
Frames: 9
Frame Time: 0.008333333333333333
9.228000 16.171100 0.522800 169.119000 -81.342200 -163.765000 0.000000 0.000000 0.000000 -27.652100 -15.992500 -7.837500 1.622400 8.030800 22.807700 -0.356800 14.844000 -16.623900 0.454400 4.324400 11.991000 0.000000 0.000000 0.000000 10.486900 26.798400 -10.307100 -1.800900 -8.438400 24.053700 -0.518200 -1.698200 -14.319900 -0.000600 -0.156600 0.430200 -5.552400 -1.360700 1.125200 0.969400 -1.982500 -2.922400 4.196200 -0.833000 -3.434700 0.589500 3.032500 -4.766200 -5.457100 4.425200 28.778500 -1.679700 1.040800 10.044200 0.000000 0.000000 0.000000 0.802200 17.112800 1.781300 29.311700 -40.296100 10.961700 19.479400 8.283900 7.318100 0.000000 0.000000 0.000000 -7.125000 0.000000 0.000000 -5.343000 22.233900 -2.936500 0.000000 0.000000 0.000000 -11.001000 24.430100 -5.957500 -43.404700 -49.962600 -21.010100 -4.446500 3.909800 52.335200 0.000000 0.000000 0.000000 7.125000 0.000000 -0.000000 68.303100 72.710600 -50.680500
9.248817 16.174937 0.523337 169.479115 -81.071538 -163.977841 0.000000 0.000000 0.000000 -27.561347 -15.851639 -8.251381 1.641240 8.075056 22.942142 -0.332312 14.715733 -16.752756 0.491823 4.496504 12.477913 0.000000 0.000000 0.000000 10.362353 26.898270 -10.678353 -1.814016 -8.467370 24.142961 -0.514724 -1.434580 -14.147566 -0.001213 -0.221315 0.608069 -5.637821 -1.457538 1.104742 0.933250 -2.107870 -2.780799 4.206787 -0.901455 -3.260051 1.004312 3.364881 -5.060657 -5.703898 4.914981 28.857163 -1.787807 1.278262 10.167137 0.000000 0.000000 0.000000 1.137653 16.925899 1.607548 29.735550 -40.665261 11.237028 20.321507 9.334465 6.206237 0.000000 0.000000 0.000000 -7.125000 0.000000 0.000000 -4.733287 23.370245 -2.475982 0.000000 0.000000 0.000000 -11.170916 24.052506 -6.165107 -44.258082 -50.399147 -21.665781 -4.915452 4.068986 51.865019 0.000000 0.000000 0.000000 7.125000 0.000000 0.000000 66.610767 72.716236 -49.166728
9.271283 16.173474 0.521374 170.001566 -80.814065 -164.383788 0.000000 0.000000 0.000000 -27.420238 -15.704772 -8.616076 1.653979 8.104735 23.032682 -0.332001 14.671132 -16.675414 0.480921 4.447255 12.338542 0.000000 0.000000 0.000000 10.307072 27.076318 -11.010925 -1.833182 -8.509616 24.272949 -0.507548 -1.266899 -13.976279 -0.001275 -0.228596 0.627988 -5.725250 -1.576521 1.080240 0.902498 -2.260003 -2.587599 4.223296 -0.986067 -3.026204 1.521564 3.704410 -5.563130 -6.057026 5.434372 29.048892 -1.946518 1.520857 10.385102 0.000000 0.000000 0.000000 1.470137 16.587406 1.625854 30.270720 -41.123690 11.587504 20.618106 9.777048 5.456455 0.000000 0.000000 0.000000 -7.125000 0.000000 0.000000 -4.520748 24.154457 -2.281852 0.000000 0.000000 0.000000 -11.262703 23.584563 -6.300893 -45.253072 -50.889602 -22.435642 -4.504136 3.581474 51.232509 0.000000 0.000000 0.000000 7.125000 0.000000 0.000000 64.995822 72.330217 -47.294877
9.292962 16.172801 0.517360 170.049007 -80.570999 -164.340815 0.000000 0.000000 0.000000 -27.346574 -15.470504 -8.974746 1.665381 8.131288 23.113503 -0.329369 14.518125 -16.435133 0.476431 4.426602 12.280101 0.000000 0.000000 0.000000 10.200618 27.253680 -11.295288 -1.852873 -8.552711 24.405874 -0.502597 -1.122262 -13.845220 -0.001313 -0.230341 0.632919 -5.718038 -1.593904 1.140056 0.751366 -2.287988 -2.515607 4.063382 -1.004593 -2.987923 1.781103 3.866002 -5.950582 -6.075052 5.637249 29.485103 -1.979551 1.614687 10.644176 0.000000 0.000000 0.000000 1.969536 16.369381 1.455390 30.815875 -41.581520 11.947778 20.678820 9.977427 4.863446 0.000000 0.000000 0.000000 -7.125000 0.000000 0.000000 -4.483082 24.783403 -2.197616 0.000000 0.000000 0.000000 -11.101223 23.662917 -6.645833 -46.577031 -51.514714 -23.467822 -3.602512 2.577803 50.429821 0.000000 0.000000 0.000000 7.125000 0.000000 0.000000 63.300654 71.682229 -45.078644
9.314967 16.173400 0.512396 169.882920 -80.293038 -164.070858 0.000000 0.000000 0.000000 -27.323634 -15.165054 -9.353564 1.675357 8.154367 23.183851 -0.313033 14.301848 -16.287640 0.492016 4.496973 12.479307 0.000000 0.000000 0.000000 10.048054 27.453378 -11.582937 -1.872264 -8.594831 24.535944 -0.494742 -0.988674 -13.681059 -0.002802 -0.329489 0.905281 -5.713863 -1.491836 1.266117 0.607671 -2.166860 -2.580405 3.914026 -0.940126 -3.145491 1.843704 3.917312 -5.670856 -5.974812 5.658630 29.468069 -1.956184 1.644722 10.582537 0.000000 0.000000 0.000000 2.447692 16.341414 1.088633 31.352905 -42.024440 12.305638 20.941802 10.617076 3.888648 0.000000 0.000000 0.000000 -7.125000 0.000000 0.000000 -4.301790 25.815008 -2.006200 0.000000 0.000000 0.000000 -10.851845 24.145653 -7.334057 -48.039568 -52.169787 -24.618033 -4.152128 2.743461 50.785844 0.000000 0.000000 0.000000 7.125000 0.000000 0.000000 63.990973 72.017397 -46.069599
9.337971 16.175253 0.507496 169.831244 -80.086655 -163.972227 0.000000 0.000000 0.000000 -27.288545 -14.872758 -9.650243 1.686399 8.179763 23.261404 -0.279186 14.057807 -16.362097 0.524926 4.642395 12.891531 0.000000 0.000000 0.000000 9.975062 27.678072 -11.772329 -1.893847 -8.641335 24.679608 -0.483452 -0.941835 -13.508704 -0.009046 -0.596369 1.638830 -5.714451 -1.381205 1.426213 0.520095 -2.032516 -2.595032 3.824700 -0.870057 -3.268977 1.782908 3.987005 -5.232185 -5.849680 5.720912 29.125483 -1.893950 1.701498 10.363347 0.000000 0.000000 0.000000 2.882571 16.167446 0.642522 31.811272 -42.395630 12.613514 21.277271 11.238712 2.870665 0.000000 0.000000 0.000000 -7.125000 0.000000 0.000000 -4.068370 26.894632 -1.792893 0.000000 0.000000 0.000000 -10.574492 24.596612 -8.180581 -49.557390 -52.811960 -25.822102 -4.252981 2.529323 51.174207 0.000000 0.000000 0.000000 7.125000 0.000000 0.000000 64.981587 72.218078 -47.153444
9.360475 16.177727 0.502845 169.947698 -79.962798 -164.081947 0.000000 0.000000 0.000000 -27.225094 -14.706518 -9.856656 1.701368 8.214242 23.366603 -0.252278 13.863454 -16.424198 0.549242 4.747749 13.190511 0.000000 0.000000 0.000000 9.994748 27.828834 -11.904192 -1.919354 -8.695913 24.848745 -0.478022 -0.921067 -13.426150 -0.009972 -0.643696 1.768989 -5.716911 -1.353896 1.615926 0.473663 -2.007484 -2.555678 3.782224 -0.856227 -3.339529 1.766905 4.116057 -5.199574 -5.836825 5.899408 29.187904 -1.869496 1.779441 10.388524 0.000000 0.000000 0.000000 3.186477 15.993862 0.366290 32.413233 -42.873199 13.021490 21.319190 11.483036 2.371790 0.000000 0.000000 0.000000 -7.125000 0.000000 0.000000 -4.048825 27.427539 -1.732593 0.000000 0.000000 0.000000 -10.361925 24.871800 -8.816508 -50.962596 -53.374388 -26.945374 -3.127154 1.262660 50.451775 0.000000 0.000000 0.000000 7.125000 0.000000 0.000000 63.686401 71.523957 -45.229618
9.383718 16.175045 0.496979 170.251691 -79.792183 -164.373421 0.000000 0.000000 0.000000 -27.130744 -14.718501 -10.050367 1.722705 8.262917 23.515418 -0.267019 13.941587 -16.339401 0.517729 4.611398 12.803372 0.000000 0.000000 0.000000 10.055398 27.947691 -12.054942 -1.947988 -8.756868 25.037725 -0.478026 -0.845610 -13.393412 -0.005181 -0.461994 1.269575 -5.712264 -1.318405 1.785445 0.423090 -1.969409 -2.497131 3.729771 -0.837330 -3.380267 2.004369 4.259141 -5.377584 -6.126028 6.144390 29.456630 -1.991066 1.868673 10.555529 0.000000 0.000000 0.000000 3.495598 15.856942 0.097517 33.045252 -43.364345 13.453349 21.361561 11.680301 1.854616 0.000000 0.000000 0.000000 -7.125000 0.000000 0.000000 -4.031096 27.980798 -1.672389 0.000000 0.000000 0.000000 -10.099053 25.044455 -9.395952 -52.285184 -53.875440 -28.010015 -0.487050 -1.234368 48.612103 0.000000 0.000000 0.000000 7.125000 0.000000 0.000000 60.929873 69.773345 -40.878587
9.403526 16.172496 0.490087 170.590973 -79.665184 -164.739083 0.000000 0.000000 0.000000 -27.029310 -14.798510 -10.181710 1.751152 8.327217 23.712360 -0.278468 14.009841 -16.287433 0.494216 4.507072 12.507903 0.000000 0.000000 0.000000 10.168974 28.017546 -12.127061 -1.980653 -8.825711 25.251545 -0.473699 -0.707841 -13.276377 -0.009204 -0.621012 1.706409 -5.629409 -1.276683 1.916459 0.330269 -1.917591 -2.404550 3.587011 -0.816500 -3.368763 2.082272 4.348210 -5.448958 -6.190107 6.276807 29.566688 -2.014399 1.923975 10.623289 0.000000 0.000000 0.000000 3.893709 15.661614 -0.246778 33.611381 -43.794729 13.843381 22.644919 11.073777 2.951114 0.000000 0.000000 0.000000 -7.125000 0.000000 0.000000 -3.022314 26.779980 -1.337901 0.000000 0.000000 0.000000 -9.669967 25.196787 -10.114904 -53.614204 -54.353049 -29.086551 -14.969910 10.261724 54.746165 0.000000 0.000000 0.000000 7.125000 0.000000 0.000000 73.160824 77.267115 -60.298010
